<svg xmlns="http://www.w3.org/2000/svg" width="622.179" height="72.06" viewBox="0 0 622.179 72.06">
  <g id="Group_2" data-name="Group 2" transform="translate(-1157.82 -2918.374)">
    <path id="Icon_awesome-twitter" data-name="Icon awesome-twitter" d="M75.411,20.394c.053.747.053,1.493.053,2.24,0,22.773-17.333,49.012-49.012,49.012A48.68,48.68,0,0,1,0,63.913a35.638,35.638,0,0,0,4.16.213,34.5,34.5,0,0,0,21.386-7.36A17.257,17.257,0,0,1,9.44,44.82a21.723,21.723,0,0,0,3.253.267,18.219,18.219,0,0,0,4.533-.587A17.229,17.229,0,0,1,3.413,27.593V27.38A17.349,17.349,0,0,0,11.2,29.567,17.252,17.252,0,0,1,5.866,6.527,48.965,48.965,0,0,0,41.385,24.553a19.446,19.446,0,0,1-.427-3.946A17.243,17.243,0,0,1,70.771,8.821,33.915,33.915,0,0,0,81.7,4.661a17.18,17.18,0,0,1-7.573,9.493,34.534,34.534,0,0,0,9.92-2.666,37.03,37.03,0,0,1-8.64,8.906Z" transform="translate(1419.949 2917.034)" fill="lime" stroke="#000" stroke-width="3"/>
    <path id="Icon_awesome-facebook" data-name="Icon awesome-facebook" d="M69.243,34.9A34.34,34.34,0,1,0,29.537,68.827v-24H20.813V34.9h8.723V27.337c0-8.606,5.123-13.359,12.97-13.359a52.849,52.849,0,0,1,7.688.67v8.447H45.864c-4.265,0-5.6,2.648-5.6,5.363V34.9h9.524l-1.523,9.927h-8v24A34.352,34.352,0,0,0,69.243,34.9Z" transform="translate(1296.758 2919.853)" fill="lime" stroke="#000" stroke-width="3"/>
    <g id="Icon_ionic-logo-android" data-name="Icon ionic-logo-android" transform="translate(1711.426 2915.503)">
      <g id="Group_1" data-name="Group 1" transform="translate(5.625 24.534)">
        <path id="Path_1" data-name="Path 1" d="M10.125,27.163V43.186a2.325,2.325,0,0,0,2.039,2.5h5.115v9.3a4.292,4.292,0,1,0,8.584,0v-9.3h8.763v9.3A4.273,4.273,0,0,0,36.2,58.315a4,4,0,0,0,2.629.966h.089a4.282,4.282,0,0,0,4.292-4.292v-9.3h4.936A2.305,2.305,0,0,0,50.183,43.2V13.5H10.125Z" transform="translate(1.32 -10.639)" fill="lime"/>
        <path id="Path_2" data-name="Path 2" d="M31.292,12.375A4.282,4.282,0,0,0,27,16.667V33.835a4.292,4.292,0,0,0,8.584,0V16.667A4.282,4.282,0,0,0,31.292,12.375Z" transform="translate(27.365 -12.375)" fill="lime"/>
        <path id="Path_3" data-name="Path 3" d="M9.917,12.375a4.282,4.282,0,0,0-4.292,4.292V33.835a4.292,4.292,0,1,0,8.584,0V16.667A4.282,4.282,0,0,0,9.917,12.375Z" transform="translate(-5.625 -12.375)" fill="lime"/>
      </g>
      <path id="Path_4" data-name="Path 4" d="M40.026,8.994l3.308-3.916c.072-.089-.036-.286-.232-.447-.2-.143-.429-.179-.483-.072L39.185,8.636a24.294,24.294,0,0,0-9.049-1.574,24.5,24.5,0,0,0-9.085,1.52l-3.4-4.006c-.072-.089-.286-.072-.483.072s-.3.322-.232.447l3.273,3.863C11.591,12.7,10.3,21.87,10.125,24.552H50.112C49.951,21.852,48.681,12.8,40.026,8.994ZM21.356,17.9a2.379,2.379,0,1,1,2.414-2.378A2.408,2.408,0,0,1,21.356,17.9Zm17.6,0a2.379,2.379,0,1,1,2.414-2.378A2.408,2.408,0,0,1,38.953,17.9Z" transform="translate(6.945)" fill="lime"/>
    </g>
    <g id="Icon_feather-instagram" data-name="Icon feather-instagram" transform="translate(1156.32 2917)">
      <path id="Path_5" data-name="Path 5" d="M20.17,3H54.51A17.17,17.17,0,0,1,71.68,20.17V54.51A17.17,17.17,0,0,1,54.51,71.68H20.17A17.17,17.17,0,0,1,3,54.51V20.17A17.17,17.17,0,0,1,20.17,3Z" transform="translate(0 0)" fill="lime" stroke="#000" stroke-linecap="round" stroke-linejoin="round" stroke-width="3"/>
      <path id="Path_6" data-name="Path 6" d="M39.389,23.657A13.736,13.736,0,1,1,27.816,12.084,13.736,13.736,0,0,1,39.389,23.657Z" transform="translate(11.688 11.52)" fill="lime" stroke="#000" stroke-linecap="round" stroke-linejoin="round" stroke-width="3"/>
      <path id="Path_7" data-name="Path 7" d="M26.25,9.75h0" transform="translate(29.977 8.703)" fill="lime" stroke="#000" stroke-linecap="round" stroke-linejoin="round" stroke-width="3"/>
    </g>
    <g id="Icon_ionic-logo-apple" data-name="Icon ionic-logo-apple" transform="translate(1578.375 2915.915)">
      <path id="Path_8" data-name="Path 8" d="M48.98,10.821c-5.972,0-8.5,2.932-12.654,2.932-4.265,0-7.518-2.915-12.69-2.915-5.065,0-10.468,3.181-13.9,8.6-4.816,7.642-4,22.038,3.8,34.3,2.79,4.39,6.523,9.313,11.41,9.366h.089c4.248,0,5.51-2.861,11.357-2.9h.089c5.758,0,6.914,2.879,11.143,2.879h.089c4.887-.053,8.815-5.51,11.606-9.882a48.613,48.613,0,0,0,4.3-8.282c-11.286-4.408-13.1-20.865-1.937-27.174-3.412-4.39-8.193-6.931-12.707-6.931Z" transform="translate(0 9.657)" fill="lime" stroke="#000" stroke-width="3"/>
      <path id="Path_9" data-name="Path 9" d="M31.151,4.5a15.542,15.542,0,0,0-10.13,5.616c-2.2,2.755-4.017,6.842-3.306,10.806H18c3.786,0,7.66-2.346,9.917-5.35A15.138,15.138,0,0,0,31.151,4.5Z" transform="translate(16.514)" fill="lime" stroke="#000" stroke-width="3"/>
    </g>
  </g>
</svg>
